<svg version="1.1"
      xmlns="http://www.w3.org/2000/svg"
      xmlns:xlink="http://www.w3.org/1999/xlink"  id="snapshot-31120" width="250" height="250" viewBox="0 0 250 250"><desc>This image was made on Patterninja.com</desc><defs>
<!-- image 64726 -->
<g id="transformed-64726" data-image="64726" transform="translate(-2.271060185448995, -11.051060185449003) rotate(341, 33.021060185448995, 33.021060185449)"><g><svg version="1.1" width="66.04212037089799px" height="66.042120370898px" viewBox="0 0 66.04212037089799 66.042120370898"><g id="original-64726"><svg xmlns="http://www.w3.org/2000/svg" viewBox="0 0 400 400" xmlns:xlink="http://www.w3.org/1999/xlink" version="1.1" preserveAspectRatio="xMidYMid meet">
  <path d="M281.9 144h-52.8c1.5-.7 3-1.4 4.6-2.1 7.1-3.4 12.7-6.5 17.1-9.4.1-.1.3-.2.4-.3 15.5-10.2 16.1-17.3 16.4-20 .6-6.6-3.4-12.3-12-16.9-3.8-2-7.7-3.1-11.6-3.1-12.2 0-23.9 9.6-34.8 28.5-1.6 2.8-3.1 5.6-4.4 8.3-1-12.6-5.2-32.7-21.6-42.7-20.2-12.2-39.8 3.8-47.7 14.3-.9.8-1.8 1.7-2.7 2.7-5.2 5.9-4.8 11.4-3.6 15 3.1 9.1 15.6 17.2 38.4 24.9.5.2 1 .3 1.5.5h-52.8c-9.4 0-17 7.6-17 17V203c0 9.4 7.6 17 17 17h16l-8.9 9h-.3c-2.8 0-5 2.2-5 5v72.1c0 9.4 7.6 17 17 17h129.6c9.4 0 17-7.6 17-17V233c0-.3 0-.6-.1-.9.3-1.6-.2-3.3-1.5-4.6-2-1.9-5.2-1.8-7.1.2L220 284v-12.3l47.9-51.6h14c9.4 0 17-7.6 17-17v-42c0-9.5-7.6-17.1-17-17.1zm0 10c2.5 0 4.6 1.3 5.9 3.2l-.3.3-48.9 52.5h-11.2l51.8-56h2.7zm-52.6 66l-9.3 10v-10h9.3zm36.3-66l-43.1 46.6v-8.8l35.1-37.8h8zm-32.6 0h10.9l-21.4 23.1v-11.8L233 154zm10.9-51.7c2.3 0 4.6.6 6.9 1.9 3.2 1.7 7 4.4 6.7 7.2-.2 2.3-2.1 4.9-5.2 7.6-1.1-4-3.1-7.3-6-9.9-2.9-2.6-6.2-4.1-9.5-4.9 2.8-1.4 5.2-1.9 7.1-1.9zM178 95c12.3 7.4 15.8 23.5 16.7 34.1-1.9-2.8-4.1-5.9-6.5-8.9-11.1-14.3-21.6-22.6-31.4-25 7.5-4.2 14.4-4.2 21.2-.2zm-68.7 66c0-3.9 3.1-7 7-7h5.5l-12.5 13.9V161zm0 21.9l25.9-28.9h12l-37.9 40.8v-11.9zm10.3 27.1h-3.2c-2.1 0-4-.9-5.3-2.4l49.8-53.6h10.7l-52 56zm8.5 28.6l18.2-18.6h11.8l-30 32.3v-13.7zm50.2 63.3L168 313.1h-11.6l21.9-23.5v12.3zm0-27.1L142.8 313h-7.7c-.9 0-1.8-.2-2.6-.5l45.8-49.5v11.8zm0-26.5l-50.2 54.3v-9.2l50.2-54.1v9zm0-23.7l-50.2 54.1V267l43.7-47h6.6v4.6zm2.5-29L167.4 210h-11l5.5-5.9 1.6-1.6c.2-.2.4-.4.5-.7l16.8-18v11.8zm0-26.5l-26.1 28.1-12.6 12.8h-8.9l47.6-51.2v10.3zM170.7 134c-26.2-8.9-31.1-16-32-18.6-.2-.7-.8-2.4 1.7-5.3 3.3-3.8 6.8-5.6 10.7-5.6 7.9 0 18.3 7.8 29.2 21.8 3.6 4.7 6.8 9.4 9.3 13.3-5.4-1.4-12.1-3.3-18.9-5.6zM210 313.1h-21.7V220H210v93.1zm2.5-103.1h-21.7v-56h9.1c.6.2 1.2.3 1.8.3.5 0 1-.1 1.6-.2 0 0 .1 0 .3-.1h9.1v56zm59.2 96.1c0 3.9-3.1 7-7 7h-12.3l19.3-20.7v13.7zm0-28.4l-.3.3-32.6 35.1h-9.3l42.3-45.3v9.9zm0-34v9.4l-.3.3-51.4 55.1v-10l51.7-54.8zm-59.6-103.4c-.4-.2-.9-.3-1.3-.4 1.9-4.2 4.3-9.3 7.1-14.2 3-5.2 5.9-9.3 8.6-12.5 3.5-.2 9.6.2 13.2 3.4 2.2 2 3.4 4.9 3.6 8.9-8.8 5.3-20.4 10.6-31.2 14.8zm7.9 116.6v-12.3l23-24.6h11.3L220 256.9zm68.9-53.9c0 3.9-3.1 7-7 7h-4.7l11.7-12.6v5.6zm0-20.3L263.6 210h-11.3l36.7-39.4v12.1z" fill="rgba(16, 50, 13, 1)" stroke="none"/>
</svg>
</g></svg></g></g>
<!-- /image 64726 -->

<!-- image 28386 -->
<g id="transformed-28386" data-image="28386" transform="translate(52.07173648307861, 115.83173648307863) rotate(338, 30.84826351692139, 30.84826351692138)"><g><svg version="1.1" width="61.69652703384278px" height="61.69652703384276px" viewBox="0 0 61.69652703384278 61.69652703384276"><g id="original-28386"><svg xmlns="http://www.w3.org/2000/svg" viewBox="0 0 400 400" xmlns:xlink="http://www.w3.org/1999/xlink" version="1.1" preserveAspectRatio="xMidYMid meet">
  <path d="M286 243.5c-2.7.4-4.7 2.9-4.3 5.6.4 3.2.6 6.5.6 9.7 0 41.2-33.5 74.7-74.7 74.7s-74.7-33.5-74.7-74.7c0-16.1 5.6-30.7 17.1-44.5 1 .7 2 1.3 3.1 2 3.1 1.8 7.3 3.4 12.2 4.7l-14.9 42c-.5 1.4-.3 3 .5 4.3.8 1.3 2.2 2.1 3.7 2.3l2.9.3-2.5 9.1c-.8 2.7.8 5.4 3.4 6.2.5.1.9.2 1.4.2 2.2 0 4.2-1.4 4.8-3.6l3.1-10.8 4.2.5-2.2 9.9c-.6 2.7 1.1 5.4 3.8 6 .4.1.7.1 1.1.1 2.3 0 4.4-1.6 4.9-3.9l2.4-11 4.7.5-2.3 10.3c-.6 2.7 1.1 5.4 3.8 6 .4.1.7.1 1.1.1 2.3 0 4.4-1.6 4.9-3.9l2.5-11.4 3.7.4h.5c2.4 0 4.4-1.7 4.9-4l9.3-46c14.2-.8 27.5-3.2 36.7-7 5.4-2.3 9.3-5 11.6-8.2 3.6 4.1 6.8 8.5 9.4 13.2.9 1.6 2.6 2.6 4.4 2.6.8 0 1.7-.2 2.4-.6 2.4-1.3 3.3-4.4 1.9-6.8-3.7-6.7-8.4-12.9-13.8-18.4-.3-.3-.6-.5-.9-.7.8-6.4-.2-11.4-2.9-14.9-2.2-2.9-5.2-4.3-7.6-4.8.5-.9 1-1.7 1.5-2.6 1.3-2.4.4-5.5-2-6.8-2.4-1.3-5.5-.4-6.8 2-2.5 4.6-5.7 8.7-9.6 12.2-.6.5-1 1.1-1.2 1.8-32.7 12.4-50.2 7.3-61.6-.3-.3-.5-.6-1.1-1.1-1.5-9.8-9-15.4-21.7-15.4-34.9 0-15.1 7.3-29.4 19.6-38.3.2-.1.4-.3.5-.5l40.6-6.6c.7.2 1.5.4 2.2.7 17.3 6 29.7 21.7 31.5 39.9.3 2.6 2.4 4.5 5 4.5h.5c2.7-.3 4.7-2.7 4.5-5.5-1.8-17.7-11.8-33.4-26.6-42.7 1.6-1 2.6-3 2.3-5-.4-2.7-3-4.6-5.7-4.1l-8.3 1.3-3.6-22c-.7-4.5-3.2-8.4-6.8-11.1-3.7-2.7-8.2-3.7-12.7-3l-27.4 4.4c-4.5.7-8.4 3.2-11.1 6.8-2.7 3.7-3.7 8.2-3 12.7l3.6 22-6.4 1c-2.7.4-4.6 3-4.1 5.7.4 2.5 2.5 4.2 4.9 4.2.3 0 .5 0 .8-.1l2.5-.4c-8.1 10.1-12.8 22.8-12.8 36 0 7 1.3 13.9 3.8 20.4-4.8-.9-7.4 1.2-8.6 2.5-3.5 4-2.3 10.9-.8 15.7-2.4 2.3-5.2 6.1-5.2 11.1 0 3.1 1.1 6.1 3.3 9-8.3 9.9-14 20.2-17 31.2l-9.9-2.6-2.5-16.8c-.4-2.7-3-4.6-5.7-4.2-2.7.4-4.6 2.9-4.2 5.7l1.9 12.6-17.9-4.6c-2.7-.7-5.4.9-6.1 3.6-.7 2.7.9 5.4 3.6 6.1l38.9 10c-.5 3.4-.7 6.8-.7 10.3 0 46.7 38 84.7 84.7 84.7s84.7-38 84.7-84.7c0-3.7-.2-7.4-.7-11-.3-2.8-2.8-4.7-5.6-4.3zM171.7 78.6c-.3-1.8.1-3.7 1.2-5.2 1.1-1.5 2.7-2.5 4.5-2.8l27.4-4.4c1.8-.3 3.7.1 5.2 1.2 1.5 1.1 2.5 2.7 2.8 4.5l3.4 20.8c-.9.3-1.7.9-2.3 1.6l-38.8 6.3-3.4-22zM197 264.1l-34.9-3.8 13.2-37.4c8.4 1.3 17.9 2 27.5 2h2l-7.8 39.2zm-43.9-70.8c2.1-1.3 3-3.9 2.1-6.2-1.1-2.6-1.9-6-2-7.9 1.9.8 4.5 3.1 7.2 5.5 6.7 6 15.8 14.2 31.2 17.1 17.3 3.3 38.3-.9 63.9-12.8.2.2.5.4.7.7.7 1 2 4.2 0 12.3-.2 1-1.5 3.5-8.1 6.2-17.1 7.2-53 8.5-75.3 4.1-6-1.2-11-2.8-14.4-4.8-2.4-1.4-4.2-2.7-5.5-3.9 0 0-.1 0-.1-.1-2.8-2.6-3.3-4.4-3.3-5.2-.1-2.1 2.7-4.4 3.6-5z" fill="rgba(16, 50, 13, 1)" stroke="none"/>
  <path d="M204.3 137.1c9.7 0 9.7-15 0-15-9.6 0-9.6 15 0 15z" fill="rgba(16, 50, 13, 1)" stroke="none"/>
  <path d="M229.8 122.1c-9.7 0-9.7 15 0 15s9.7-15 0-15z" fill="rgba(16, 50, 13, 1)" stroke="none"/>
  <path d="M316.8 217.9c-1.2-2.5-4.2-3.5-6.7-2.3l-48 23.5c-2.5 1.2-3.5 4.2-2.3 6.7.9 1.8 2.6 2.8 4.5 2.8.7 0 1.5-.2 2.2-.5l48-23.5c2.5-1.2 3.5-4.2 2.3-6.7z" fill="rgba(16, 50, 13, 1)" stroke="none"/>
  <path d="M217.3 157.3c0 2.8 2.2 5 5 5h58.5c2.8 0 5-2.2 5-5s-2.2-5-5-5h-58.5c-2.8 0-5 2.2-5 5z" fill="rgba(16, 50, 13, 1)" stroke="none"/>
</svg>
</g></svg></g></g>
<!-- /image 28386 -->

<!-- image 20659 -->
<g id="transformed-20659" data-image="20659" transform="translate(133.42806789822913, -2.2719321017708864) rotate(32, 46.21193210177085, 46.211932101770884)"><g><svg version="1.1" width="92.4238642035417px" height="92.42386420354177px" viewBox="0 0 92.4238642035417 92.42386420354177"><g id="original-20659"><svg xmlns="http://www.w3.org/2000/svg" viewBox="0 0 400 400" xmlns:xlink="http://www.w3.org/1999/xlink" version="1.1" preserveAspectRatio="xMidYMid meet">
  <path d="M264.5 177.1c-1.6-5.1-5.9-8.7-11.2-9.4l-24.8-3.6c-1.3-.2-2.3-1-2.9-2.1l-11.1-22.5c-2.4-4.8-7.1-7.7-12.4-7.7-5.3 0-10.1 3-12.4 7.7L178.6 162c-.6 1.1-1.6 1.9-2.9 2.1l-24.8 3.6c-5.3.8-9.5 4.4-11.2 9.4-1.6 5.1-.3 10.5 3.5 14.2l17.9 17.5c.9.9 1.3 2.2 1.1 3.4l-4.2 24.7c-.9 5.2 1.2 10.4 5.5 13.5 4.3 3.1 9.9 3.5 14.6 1.1l22.2-11.6c1.1-.6 2.5-.6 3.6 0l22.2 11.6c2 1.1 4.3 1.6 6.5 1.6 2.9 0 5.7-.9 8.1-2.7 4.3-3.1 6.4-8.3 5.5-13.5l-4.2-24.7c-.2-1.2.2-2.5 1.1-3.4l17.9-17.5c3.8-3.7 5.1-9.1 3.5-14.2zm-10.5 7l-17.9 17.5c-3.3 3.2-4.8 7.8-4 12.3l4.2 24.7c.4 2.1-.9 3.3-1.5 3.8-.6.4-2.1 1.3-4.1.3L208.6 231c-2-1.1-4.2-1.6-6.4-1.6s-4.4.5-6.4 1.6l-22.2 11.6c-1.9 1-3.5.1-4.1-.3-.6-.4-1.9-1.6-1.5-3.8l4.2-24.7c.8-4.5-.7-9.1-4-12.3L150.3 184c-1.5-1.5-1.2-3.3-1-3.9.2-.7 1-2.3 3.1-2.6l24.8-3.6c4.5-.7 8.4-3.5 10.4-7.6l11.1-22.5c1-1.9 2.7-2.1 3.5-2.1s2.5.2 3.5 2.1l11.1 22.5c2 4.1 5.9 6.9 10.4 7.6l24.8 3.6c2.1.3 2.9 1.9 3.1 2.6.1.8.4 2.5-1.1 4z" fill="rgba(16, 50, 13, 1)" stroke="none"/>
  <path d="M114.9 155.7c.2 0 .5 0 .7-.1l30.6-4.5c12-1.7 22.3-9.2 27.7-20.1l13.7-27.7c1.2-2.5.2-5.5-2.3-6.7-2.5-1.2-5.5-.2-6.7 2.3l-13.7 27.7c-3.9 7.9-11.4 13.4-20.1 14.6l-30.6 4.5c-2.7.4-4.6 2.9-4.2 5.7.3 2.5 2.5 4.3 4.9 4.3z" fill="rgba(16, 50, 13, 1)" stroke="none"/>
  <path d="M232.4 131.1c5.4 10.8 15.7 18.4 27.7 20.1l30.6 4.5c.2 0 .5.1.7.1 2.4 0 4.6-1.8 4.9-4.3.4-2.7-1.5-5.3-4.2-5.7l-30.6-4.5c-8.7-1.3-16.2-6.7-20.1-14.6L227.7 99c-1.2-2.5-4.2-3.5-6.7-2.3-2.5 1.2-3.5 4.2-2.3 6.7l13.7 27.7z" fill="rgba(16, 50, 13, 1)" stroke="none"/>
  <path d="M108.5 178.5c-2-1.9-5.1-1.9-7.1.1-1.9 2-1.9 5.1.1 7.1l22.2 21.6c6.3 6.1 9.2 15 7.7 23.7l-5.2 30.5c-.5 2.7 1.4 5.3 4.1 5.8.3 0 .6.1.9.1 2.4 0 4.5-1.7 4.9-4.2l5.2-30.5c2-11.9-1.9-24.1-10.6-32.5l-22.2-21.7z" fill="rgba(16, 50, 13, 1)" stroke="none"/>
  <path d="M246.6 280.4L219.2 266a36.91 36.91 0 0 0-34.2 0l-27.4 14.4c-2.4 1.3-3.4 4.3-2.1 6.8 1.3 2.4 4.3 3.4 6.8 2.1l27.4-14.4c7.8-4.1 17.1-4.1 24.9 0l27.4 14.4c.7.4 1.5.6 2.3.6 1.8 0 3.5-1 4.4-2.7 1.3-2.4.3-5.5-2.1-6.8z" fill="rgba(16, 50, 13, 1)" stroke="none"/>
  <path d="M272.4 267.4c.3 0 .6 0 .9-.1 2.7-.5 4.5-3.1 4.1-5.8l-5.2-30.5c-1.5-8.7 1.4-17.5 7.7-23.7l22.2-21.6c2-1.9 2-5.1.1-7.1s-5.1-2-7.1-.1l-22.2 21.6c-8.7 8.4-12.6 20.6-10.6 32.5l5.2 30.5c.3 2.5 2.5 4.3 4.9 4.3z" fill="rgba(16, 50, 13, 1)" stroke="none"/>
  <path d="M321.4 228.7l-28.1-11.1c-2.6-1-5.5.2-6.5 2.8-1 2.6.2 5.5 2.8 6.5l28.1 11.1c.6.2 1.2.3 1.8.3 2 0 3.9-1.2 4.7-3.2 1-2.5-.3-5.4-2.8-6.4z" fill="rgba(16, 50, 13, 1)" stroke="none"/>
  <path d="M202.7 288.2c-2.8 0-5 2.3-5 5l.3 30.2c0 2.7 2.3 5 5 5h.1c2.8 0 5-2.3 5-5l-.3-30.2c-.1-2.8-2.3-5-5.1-5z" fill="rgba(16, 50, 13, 1)" stroke="none"/>
  <path d="M144.4 123.5c1 1.3 2.5 2 4 2 1.1 0 2.1-.3 3-1 2.2-1.7 2.6-4.8 1-7L134 93.4c-1.7-2.2-4.8-2.6-7-1-2.2 1.7-2.6 4.8-1 7l18.4 24.1z" fill="rgba(16, 50, 13, 1)" stroke="none"/>
  <path d="M106.6 218.6l-28.3 10.7c-2.6 1-3.9 3.9-2.9 6.4.8 2 2.7 3.2 4.7 3.2.6 0 1.2-.1 1.8-.3l28.3-10.7c2.6-1 3.9-3.9 2.9-6.4-1.1-2.6-3.9-3.9-6.5-2.9z" fill="rgba(16, 50, 13, 1)" stroke="none"/>
  <path d="M262.2 124.9c1.3 0 2.6-.5 3.6-1.5l21.1-21.6c1.9-2 1.9-5.1-.1-7.1-2-1.9-5.1-1.9-7.1.1l-21.1 21.6c-1.9 2-1.9 5.1.1 7.1 1 1 2.2 1.4 3.5 1.4z" fill="rgba(16, 50, 13, 1)" stroke="none"/>
  <circle cx="273.9" cy="292.7" r="6.7" fill="rgba(16, 50, 13, 1)" stroke="none"/>
  <circle cx="315.2" cy="159.4" r="6.7" fill="rgba(16, 50, 13, 1)" stroke="none"/>
  <circle cx="89.2" cy="159.4" r="6.7" fill="rgba(16, 50, 13, 1)" stroke="none"/>
  <circle cx="202.1" cy="76.3" r="6.7" fill="rgba(16, 50, 13, 1)" stroke="none"/>
  <circle cx="132.1" cy="288" r="6.7" fill="rgba(16, 50, 13, 1)" stroke="none"/>
</svg>
</g></svg></g></g>
<!-- /image 20659 -->

<!-- image 85956 -->
<g id="transformed-85956" data-image="85956" transform="translate(197.61044542784703, 107.50044542784701) rotate(19, 41.37955457215299, 41.37955457215299)"><g><svg version="1.1" width="82.75910914430598px" height="82.75910914430598px" viewBox="0 0 82.75910914430598 82.75910914430598"><g id="original-85956"><svg xmlns="http://www.w3.org/2000/svg" viewBox="0 0 400 400" xmlns:xlink="http://www.w3.org/1999/xlink" version="1.1" preserveAspectRatio="xMidYMid meet">
  <path d="M249.9 259.3c1.9-.7 3.6-1.7 5.2-3 10.2-8.5 14.7-29.1 11.2-40-1.7-5.4-5.4-8.8-10.2-9.2-4.7-.4-9.5.3-13.6 1.3 2.7-6.9 6.1-15.4 9.1-23 3.2-8 6-15.1 7.3-18.4 6.3-16 5.8-32.3-1.4-47.3-7.9-16.3-23-29-41.5-34.7-34.3-10.6-70.9 8.6-81.6 43-.3.8-1.7 5-2.2 8-.7 4.2-1.2 13.7-.1 20.8v.2l.8 4.1c1.6 11.8 12.4 20.2 24.3 18.8 11.9-1.5 20.4-12.4 18.9-24.3l-.4-3c0-.2-.1-.5-.1-.7-1.1-4.1 0-8.9 0-8.9 1.5-5.9 5.2-10.8 10.4-13.9 4.9-2.9 10.5-3.8 16-2.7.2.1.4.2.6.2.4.1.8.2 1.1.2 6 1.7 11.3 6.1 14.3 11.8 2.7 5.1 3.3 10.5 1.6 15.2-.8 2.2-3.8 9.5-7.2 17.8-3.2 7.9-7.1 17.3-10.7 26.1-3.9-4.2-9.3-8.6-15.2-9.6-4.2-.7-8.2.3-11.6 2.9-10.5 8.1-16 29.6-13 40.9.1.4.2.7.3 1l-32.5 19.2c-1.6 1-2.6 2.7-2.4 4.6.1 1.9 1.3 3.5 3 4.3l14.7 6.5 1.7 12.9c.2 1.7 1.3 3.2 2.8 3.9.7.3 1.4.5 2.1.5.9 0 1.9-.3 2.7-.8l18.6-11.8c-4.1 10.3-7.1 17.7-8.3 20.8-.5.7-.9 1.6-.9 2.5-3.6 10.5 1.7 22.1 12.2 26.2 2.5 1 5 1.4 7.6 1.4 2.9 0 5.7-.6 8.4-1.8 5.1-2.2 9.1-6.3 11.1-11.5l12.7-32.3 14.2 31.1c.8 1.7 2.4 2.8 4.3 2.9h.2c1.8 0 3.4-.9 4.3-2.5l8-13.9 13-.3c1.7 0 3.3-.9 4.2-2.4.9-1.5 1-3.3.2-4.8l-14.2-28.3zm5.4-42.3c.8.1 1.3 1.6 1.5 2.2 2.4 7.4-1.3 23.6-8.1 29.3-7.4 6.2-20.4-7.4-20.6-7.5.9-1.5 1.7-3.1 2.2-4.8l2.6-9.7c.4-1.4.6-2.9.6-4.3.3-.1.5-.2.8-.3 3.1-1.6 12.9-5.5 21-4.9zm-52.9 66.9l-25.5 5.3c1.3-3.4 3-7.5 5-12.4.2 0 .5 0 .7-.1l24.6-5.2-4.8 12.4zm8.9-83h.5c.3 0 .7 0 1-.1l23.8-5c-2.4 6.1-4.7 11.8-6.3 15.9-.1.2-.1.3-.1.5-2.2-3.1-5.5-5.5-9.5-6.6l-2.7-.6c-2.8-.7-5.6-.7-8.2-.1.5-1.4 1-2.7 1.5-4zm-1.1-82.4l6.3-22.7c6.8 2.6 13.1 6.2 18.3 10.8l-17 16.5c-2.3-1.9-4.9-3.5-7.6-4.6zm18.9 38.7c.9-2.6 1.4-5.3 1.5-8.1l22.4-8.4c.5 5.8-.1 11.7-1.8 17.6-.5 0-.9 0-1.4.1l-23.2 4.9c1.3-2.9 2.1-5 2.5-6.1zm-7.4 18.3c.1-.4.3-.7.4-1.1l25.1-5.3c-1.4 3.5-3.1 7.8-4.9 12.5-.4 1-.8 2-1.2 3.1l-25.4 5.3c2.1-5 4.2-10 6-14.5zm-17.5 53.7l2.6-9.7c1-3.7 4.8-6 8.6-5l2.9.8c3.7 1 6 4.8 5 8.6l-2.6 9.7c-1 3.7-4.8 6-8.6 5l-2.9-.8c-3.7-1-5.9-4.8-5-8.6zm7.3 31.3l-25.3 5.3c.5-1.2.9-2.4 1.4-3.6.2-.4.4-.9.5-1.4 2.6-6.5 5.4-13.5 8.3-20.9 2.2 3.6 5.7 6.3 10.1 7.5l2.9.8c1.5.4 2.9.6 4.4.6.8 0 1.6-.1 2.3-.2l-4.6 11.9zm39.6-129.8l-22 8.3c-.6-1.7-1.3-3.4-2.2-5.1-.7-1.3-1.4-2.4-2.2-3.6l17.1-16.6c2.6 3.2 4.9 6.7 6.6 10.4 1.1 2.2 2 4.4 2.7 6.6zM144 131c1.9-6.3 4.9-11.9 8.7-16.9l16.7 18.2c-1.5 2.5-2.6 5.3-3.3 8.2-.1.2-.2 1-.4 2.2l-21.9-10.9c.1-.3.2-.5.2-.7-.1 0-.1 0 0-.1zm12 39c-6.5.8-12.4-3.8-13.2-10.2 0-.1 0-.2-.1-.3l-.8-4.1c-.6-4.1-.6-9.3-.3-13.3l24.3 12.1.3 2.7c.9 6.4-3.7 12.3-10.2 13.1zm19.7-45.5l-16.3-17.7c5.6-5.1 12.1-9 19.2-11.5l4.6 24.2c-.7.3-1.4.7-2.1 1.1-2 1.1-3.8 2.4-5.4 3.9zm17-8.2l-4.5-23.5c6.1-1 12.3-.9 18.6.3l-6.4 23c-2.6-.2-5.1-.2-7.7.2zM181 199c1.2-.9 2.4-1.2 3.8-1 5.2.9 11.9 8.6 14.9 13.2 0 .1.1.1.2.2-1.2 1.6-2.1 3.5-2.7 5.6l-2.6 9.7c-.3 1.2-.5 2.4-.6 3.7h-.1c-.1 0-10.8 2.7-20.8 1.4-.3-.4-.7-.8-1.1-1.1-.2-.4-.3-.8-.4-1.2-2.2-8 2.3-25.1 9.4-30.5zm-25.5 72.4l-1-7.9a4.9 4.9 0 0 0-2.9-3.9l-8.4-3.7 25.5-15.1c1.1.5 2.1.7 2.9.8 2.4.3 4.9.4 7.2.4 2.2 0 4.3-.1 6.2-.3-2 5.1-4 10-5.8 14.6l-23.7 15.1zm32.3 41c-2.7 1.2-5.7 1.2-8.4.2-5-2-7.7-7.2-6.8-12.2L198 295l-4.4 11.4c-1.1 2.7-3.2 4.8-5.8 6zm55.8-27c-1.7 0-3.3 1-4.2 2.5l-4.6 7.9-13.7-30.1c-.1-.3-.3-.6-.5-.8l5-12.7c1.7 1.4 3.7 2.8 5.9 4.1 2.5 1.5 5 2.5 7.4 3.1l12.7 25.7-8 .3z" fill="rgba(16, 50, 13, 1)" stroke="none"/>
</svg>
</g></svg></g></g>
<!-- /image 85956 -->

<!-- image 78250 -->
<g id="transformed-78250" data-image="78250" transform="translate(-9.443897351407617, 56.4761026485924) rotate(228, 35.81389735140762, 35.813897351407604)"><g><svg version="1.1" width="71.62779470281524px" height="71.62779470281521px" viewBox="0 0 71.62779470281524 71.62779470281521"><g id="original-78250"><svg xmlns="http://www.w3.org/2000/svg" viewBox="0 0 400 400" xmlns:xlink="http://www.w3.org/1999/xlink" version="1.1" preserveAspectRatio="xMidYMid meet">
  <path d="M225.7 137.3v-15.7c0-9.4-7.6-17-17-17h-20c-9.4 0-17 7.6-17 17v19c0 2.8 2.2 5 5 5s5-2.2 5-5v-19c0-3.9 3.1-7 7-7h20c3.9 0 7 3.1 7 7v13.3c-5.5-1-11.2-1.5-17-1.5-3.3 0-6.5.2-9.8.5-2.7.3-4.7 2.7-4.5 5.5.3 2.7 2.7 4.7 5.5 4.5 2.9-.3 5.8-.4 8.7-.4 37.4 0 69.1 24.5 80.1 58.2H118.6c2.5-7.8 6.2-15.2 10.9-22 9.6-13.8 22.9-24.4 38.5-30.5 2.6-1 3.8-3.9 2.8-6.5s-3.9-3.8-6.5-2.8c-17.5 6.8-32.4 18.6-43.1 34.1-11 15.8-16.8 34.4-16.8 53.7 0 52 42.3 94.2 94.2 94.2s94.2-42.3 94.2-94.2c.2-42.7-28.2-78.7-67.1-90.4zm57.3 90.3c0 8-1.1 15.7-3.2 23h-17.5l19.7-35.8c.7 4.2 1 8.5 1 12.8zm-10.6-16l-18.6 33.9-19.8-33.9h38.4zm-27.3 39h-39.7l20.3-33.3 19.4 33.3zm-27.7-39l-21 34.5-21.8-34.5h42.8zm-30 39h-38.9l17.9-33.2 21 33.2zm-29.1-39l-18.2 33.7-18.8-33.7h37zm-26.7 39h-13.9c-2.1-7.3-3.2-15-3.2-23 0-2.4.1-4.8.3-7.1l16.8 30.1zm67.1 61.3c-34.7 0-64.6-21.1-77.5-51.2h154.9c-12.7 30-42.6 51.2-77.4 51.2z" fill="rgba(16, 50, 13, 1)" stroke="none"/>
  <path d="M258.2 195.7c.9 1.7 2.6 2.6 4.4 2.6.8 0 1.6-.2 2.4-.6 2.4-1.3 3.3-4.4 2-6.8-8-14.6-20.8-26.6-35.8-33.7-2.5-1.2-5.5-.1-6.7 2.4-1.2 2.5-.1 5.5 2.4 6.7 13.1 6.1 24.2 16.6 31.3 29.4z" fill="rgba(16, 50, 13, 1)" stroke="none"/>
  <circle cx="215.1" cy="156.2" r="5.9" fill="rgba(16, 50, 13, 1)" stroke="none"/>
  <path d="M183.6 102c2.8 0 5-2.2 5-5 0-5.5 4.5-10 10-10s10 4.5 10 10c0 2.8 2.2 5 5 5s5-2.2 5-5c0-11-9-20-20-20s-20 9-20 20c0 2.7 2.2 5 5 5z" fill="rgba(16, 50, 13, 1)" stroke="none"/>
</svg>
</g></svg></g></g>
<!-- /image 78250 -->

<!-- image 63154 -->
<g id="transformed-63154" data-image="63154" transform="translate(53.796773703304055, 183.45677370330404) rotate(2, 41.24322629669595, 41.24322629669595)"><g><svg version="1.1" width="82.4864525933919px" height="82.4864525933919px" viewBox="0 0 82.4864525933919 82.4864525933919"><g id="original-63154"><svg xmlns="http://www.w3.org/2000/svg" viewBox="0 0 400 400" xmlns:xlink="http://www.w3.org/1999/xlink" version="1.1" preserveAspectRatio="xMidYMid meet">
  <path d="M218.9 279.6l3.5-16.7c.4-2.1-.5-4.3-2.4-5.3-.6-.4-15.2-9.8-7.8-45.1 3.4-16.2 1.5-30.9-5.6-42.5-2.6-4.4-5.9-8.2-9.7-11.3.1-.2.1-.4.2-.6 2.1-10-4.4-19.9-14.4-22-9.8-2-19.4 4.1-21.8 13.7-5.8 1.2-11.3 3.6-16.3 7.2-11 7.8-18.6 20.6-22 36.8-7.3 35.1-24.3 38.1-25.2 38.2-2.1.3-3.9 1.8-4.3 3.9l-3.5 16.7c-.6 2.7 1.2 5.4 3.9 5.9l42.6 8.9c.4 8.3 6.4 15.7 14.9 17.4 1.2.2 2.4.4 3.6.4 7.1 0 13.6-4.1 16.7-10.4l41.6 8.7c.3.1.7.1 1 .1 2.4 0 4.5-1.6 5-4zm-38.3-133.7c3.5.7 6 3.5 6.7 6.8-2.8-1.3-5.8-2.3-8.9-2.9-2.1-.4-4.1-.7-6.2-.8 2-2.5 5.2-3.7 8.4-3.1zm-21.2 127.8c-1.9 1.3-4.2 1.7-6.4 1.3-3-.6-5.3-2.7-6.3-5.4l14.2 3c-.5.4-1 .8-1.5 1.1zm-59-23.9l1.8-8.8c7.3-2.6 23.2-11.9 30.1-45.1 6.2-29.9 27.2-39.8 44-36.3 16.9 3.5 32.3 21 26 50.9-4.3 20.9-1.7 34.5 2.2 43l-87.3-18.2c-2.7-.6-5.4 1.2-5.9 3.9-.6 2.7 1.2 5.4 3.9 5.9l96.4 20.1-1.6 7.4-109.6-22.8z" fill="rgba(16, 50, 13, 1)" stroke="none"/>
  <path d="M178.8 176.9c.1 0 11.7 5.3 9.4 30.4-.3 2.8 1.8 5.2 4.5 5.4h.5c2.6 0 4.7-2 5-4.5 3-32.9-14.9-40.3-15.7-40.6-2.6-1-5.5.3-6.5 2.8-1 2.6.2 5.5 2.8 6.5z" fill="rgba(16, 50, 13, 1)" stroke="none"/>
  <path d="M167 172.2l.2.1c.8.4 1.6.6 2.4.6 1.8 0 3.5-1 4.4-2.6.4-.8.6-1.6.6-2.4 0-1.8-1-3.5-2.6-4.4l-.2-.1c-2.4-1.3-5.5-.4-6.8 2-.4.8-.6 1.6-.6 2.4 0 1.8.9 3.5 2.6 4.4z" fill="rgba(16, 50, 13, 1)" stroke="none"/>
  <path d="M306.8 107.8c-1.1-1.4-2.9-2.2-4.7-1.9-.3 0-29.8 3.9-40.1-15.5-1-1.8-3-2.9-5-2.6-2.1.2-3.8 1.8-4.3 3.8 0 .1-3.6 13.9-14.1 19.6-5.9 3.2-13.2 3.3-21.7.3-1.7-.6-3.7-.2-5 1-1.4 1.2-1.9 3.1-1.5 4.9 0 .1 1.3 5.5-1.5 9.6-2 2.9-5.8 4.8-11.3 5.5-2.7.4-4.7 2.9-4.3 5.6.4 2.7 2.9 4.7 5.6 4.3 8.5-1.1 14.6-4.5 18.3-9.9 2.2-3.2 3.1-6.7 3.3-9.7 8.4 1.7 16.1.7 22.8-2.9 7.8-4.2 12.7-11.2 15.5-16.8 6 6.3 14.5 10.4 24.9 12.2 4.3.7 8.3 1 11.6 1-5.8 17.7-3.8 31.1-1.4 39-6.5.3-15.4 1.9-22.8 7.8-6.3 5.1-10.3 12.3-11.8 21.5-8.2-1.2-23.4-1.9-34.6 7-2.2 1.7-2.5 4.9-.8 7 1 1.2 2.4 1.9 3.9 1.9 1.1 0 2.2-.4 3.1-1.1 11.7-9.2 31.3-4.1 31.5-4.1 1.5.4 3 .1 4.2-.8 1.2-.9 2-2.3 2.1-3.8.5-8.9 3.4-15.6 8.7-19.8 9.3-7.5 23.4-5.4 23.5-5.4 2 .3 3.9-.5 5-2.2 1.1-1.7 1.1-3.8 0-5.5-.1-.2-10.5-16.7 1.4-45.1.9-1.5.6-3.4-.5-4.9z" fill="rgba(16, 50, 13, 1)" stroke="none"/>
  <path d="M227.2 165.3c.9 0 1.8-.2 2.6-.7l39.1-23.4c2.4-1.4 3.1-4.5 1.7-6.9-1.4-2.4-4.5-3.1-6.9-1.7L224.6 156c-2.4 1.4-3.1 4.5-1.7 6.9.9 1.5 2.6 2.4 4.3 2.4z" fill="rgba(16, 50, 13, 1)" stroke="none"/>
  <path d="M107.6 105.1c.1.1 12.3 7.3 14.8 19 1.4 6.6-.5 13.6-5.8 20.9-.9 1.2-1.2 2.8-.8 4.2.4 1.5 1.4 2.7 2.8 3.3.1 0 5.5 2.5 11.1 7.2.9.8 2.1 1.2 3.2 1.2 1.4 0 2.8-.6 3.8-1.8 1.8-2.1 1.5-5.3-.6-7-3-2.5-6-4.5-8.4-5.9 4.6-8.1 6.1-16.2 4.4-24.1-1.9-8.7-7.2-15.3-11.8-19.6 7.7-4 14.1-11 18.7-20.5 1.9-3.9 3.3-7.7 4.2-10.9 15.2 10.3 28.4 12.3 36.7 12.2-1.7 5.8-2.9 13.9-.3 21.8s8.3 14.1 17.1 18.3c2.5 1.2 5.5.1 6.7-2.3 1.2-2.5.1-5.5-2.3-6.7-6.2-3-10.1-7-11.9-12.3-3.4-10.4 2.8-22.2 2.8-22.3 1-1.8.7-3.9-.5-5.5-1.3-1.6-3.4-2.2-5.3-1.7-.8.2-19.3 5.2-42.9-14-1.4-1.1-3.3-1.4-5-.8-1.7.7-2.9 2.2-3.1 3.9 0 .3-4.6 29.7-26.1 34.2-2 .4-3.6 2-3.9 4.1-.3 2 .6 4.1 2.4 5.1z" fill="rgba(16, 50, 13, 1)" stroke="none"/>
  <path d="M153.6 100c-2.7.7-4.3 3.4-3.6 6.1l6 22.8c.6 2.2 2.6 3.7 4.8 3.7.4 0 .8-.1 1.3-.2 2.7-.7 4.3-3.4 3.6-6.1l-6-22.8c-.7-2.6-3.4-4.2-6.1-3.5z" fill="rgba(16, 50, 13, 1)" stroke="none"/>
  <path d="M227.8 203.5c-1.1-2.5-4-3.7-6.6-2.6-2.5 1.1-3.7 4-2.6 6.6l45.1 105.8-15-3.5c-2.2-.5-4.5.5-5.5 2.5l-6.7 12.3-11.8-27.7c-1.1-2.5-4-3.7-6.6-2.6-2.5 1.1-3.7 4-2.6 6.6l15.9 37.2c.8 1.8 2.4 2.9 4.4 3h.2c1.8 0 3.5-1 4.4-2.6l9.8-17.9 20.9 4.9c1.8.4 3.8-.2 5-1.6 1.2-1.4 1.5-3.4.8-5.2l-49.1-115.2z" fill="rgba(16, 50, 13, 1)" stroke="none"/>
</svg>
</g></svg></g></g>
<!-- /image 63154 -->

<!-- image 92578 -->
<g id="transformed-92578" data-image="92578" transform="translate(110.41634670671641, 79.09634670671639) rotate(0, 40.1136532932836, 40.1136532932836)"><g><svg version="1.1" width="80.2273065865672px" height="80.2273065865672px" viewBox="0 0 80.2273065865672 80.2273065865672"><g id="original-92578"><svg xmlns="http://www.w3.org/2000/svg" viewBox="0 0 400 400" xmlns:xlink="http://www.w3.org/1999/xlink" version="1.1" preserveAspectRatio="xMidYMid meet">
  <path d="M298.4 289l-47.1-66.5h20.5c1.9 0 3.7-1.1 4.5-2.9.8-1.8.5-3.8-.7-5.3l-46.4-54.7h20.2c1.9 0 3.6-1 4.4-2.7.9-1.6.7-3.6-.3-5.2L221 104.3l-15-21.7c-.9-1.4-2.5-2.2-4.1-2.2-1.6 0-3.2.8-4.1 2.2l-47.5 69.1c-1.1 1.5-1.2 3.5-.3 5.2.9 1.6 2.6 2.7 4.4 2.7h20.2l-6.4 7.6-39.9 47.1c-1.3 1.5-1.5 3.6-.7 5.3.8 1.8 2.6 2.9 4.5 2.9h20.5L105.5 289c-1.1 1.5-1.2 3.5-.4 5.2.9 1.7 2.6 2.7 4.4 2.7h53l-.1 35.5c0 1.3.5 2.6 1.5 3.5.9.9 2.2 1.5 3.5 1.5h68.9c2.8 0 5-2.2 5-5v-35.5h53c1.9 0 3.6-1 4.4-2.7.9-1.6.8-3.6-.3-5.2zM201.9 94.3l9.3 13.5c-.3.5-.8 1.1-1.5 2-1.7 2.1-1.4 5.3.8 7 .9.7 2 1.1 3.1 1.1 1.3 0 2.6-.5 3.5-1.4l21.6 31.4h-73.6l7.5-10.9c10.9-.8 14.4-1.1 21.5-4.5 2.5-1.2 3.6-4.2 2.4-6.7-1.2-2.5-4.2-3.6-6.7-2.4-3.7 1.7-5.8 2.4-9.9 2.9l22-32zm-29.7 83.6c3.5 3.4 7.3 6.3 11.5 8.6.8.4 1.6.6 2.4.6 1.8 0 3.5-1 4.4-2.6 1.3-2.4.4-5.5-2-6.8-3.6-1.9-6.9-4.4-9.8-7.4l10.6-12.5h25.4l18.6 21.9c-5.4 1.8-13.5 4-21.8 4.2-2.8.1-4.9 2.4-4.8 5.2.1 2.7 2.3 4.8 5 4.8h.2c11.8-.4 23-4 28.4-6.1l20.9 24.6H143l29.2-34.5zm15.3 109c-2.8 0-5 2.2-5 5s2.2 5 5 5h43.8v30.5h-58.9l.1-35.5c0-1.3-.5-2.6-1.5-3.5-.9-.9-2.2-1.5-3.5-1.5h-48.3l21.8-30.8c3.7 1.8 9.1 2.8 16.3 2.8 2.8 0 5.9-.1 9.3-.4 2.8-.2 4.8-2.6 4.6-5.4-.2-2.8-2.6-4.8-5.4-4.6-11 .9-16.4 0-18.9-.7l17.9-25.2H239l3.4 4.9c-2.7 1.5-6.9 3.4-13.5 5.8-2.6.9-4 3.8-3.1 6.4.7 2.1 2.7 3.3 4.7 3.3.6 0 1.1-.1 1.7-.3 7-2.5 12.2-4.7 16-7l36.4 51.4h-97.1z" fill="rgba(16, 50, 13, 1)" stroke="none"/>
  <path d="M203.6 240.4c-4.2 1.2-6.2 1.8-8 2.4-1.2.4-2.2.7-3.6 1.1-2.7.8-4.2 3.5-3.4 6.2.6 2.2 2.6 3.6 4.8 3.6.5 0 .9-.1 1.4-.2 1.6-.5 2.8-.8 4-1.2 1.7-.6 3.7-1.2 7.6-2.3 2.7-.7 4.2-3.5 3.5-6.2-.9-2.6-3.6-4.2-6.3-3.4z" fill="rgba(16, 50, 13, 1)" stroke="none"/>
  <path d="M194.9 190.8c.8.7 1.9 1.3 3.4 1.5.3 0 .5.1.8.1 2.4 0 4.5-1.8 4.9-4.2.3-2.2-.9-4.4-2.8-5.3-.7-.6-1.6-1-2.7-1.3-2.7-.7-5.4 1-6.1 3.6-.6 2.2.5 4.5 2.5 5.6z" fill="rgba(16, 50, 13, 1)" stroke="none"/>
  <path d="M199.4 125.8c.9.7 2 1.1 3.1 1.1s2.2-.3 3-1c.9-.4 1.9-1.2 2.8-2.5 1.5-2.3.9-5.4-1.4-6.9-1.9-1.2-4.3-1-6 .4-.8.4-1.6 1.1-2.3 1.9-1.8 2.2-1.4 5.3.8 7z" fill="rgba(16, 50, 13, 1)" stroke="none"/>
  <path d="M181.2 247.7h-2.7c-2.8 0-5 2.2-5 5s2.2 5 5 5h2.7c2.8 0 5-2.2 5-5s-2.3-5-5-5z" fill="rgba(16, 50, 13, 1)" stroke="none"/>
  <path d="M218.7 236.3l-2.2.4c-2.7.5-4.5 3.1-4.1 5.8.4 2.4 2.5 4.1 4.9 4.1.3 0 .6 0 .9-.1l2.2-.4c2.7-.5 4.5-3.1 4.1-5.8-.5-2.6-3.1-4.5-5.8-4z" fill="rgba(16, 50, 13, 1)" stroke="none"/>
  <path d="M195.1 74.5l8.3-4.4 8.4 4.4-1.6-9.3 6.8-6.6-9.4-1.3-4.2-8.5-4.1 8.5-9.4 1.3 6.8 6.6z" fill="rgba(16, 50, 13, 1)" stroke="none"/>
</svg>
</g></svg></g></g>
<!-- /image 92578 -->

<!-- image 03519 -->
<g id="transformed-03519" data-image="03519" transform="translate(172.96111264153976, 179.00111264153975) rotate(4, 33.62888735846025, 33.628887358460254)"><g><svg version="1.1" width="67.2577747169205px" height="67.25777471692051px" viewBox="0 0 67.2577747169205 67.25777471692051"><g id="original-03519"><svg xmlns="http://www.w3.org/2000/svg" viewBox="0 0 400 400" xmlns:xlink="http://www.w3.org/1999/xlink" version="1.1" preserveAspectRatio="xMidYMid meet">
  <path d="M159 137.9c1.7 0 3.4-.9 4.3-2.5 1.2-2 .8-4.5-.8-6.1-4.5-4.4-44.3-42.6-67.6-33.2-5.9 2.4-6.6 6.3-6.5 8.4.2 4.7 3.3 10.6 36.3 22.6 16.3 5.9 32.7 10.6 32.9 10.7.5.1.9.1 1.4.1zm-28.6-19.4c-19.5-6.9-27.2-11.3-30.2-13.5 8.9-2.1 23.7 6 37 15.9-2.3-.9-4.6-1.6-6.8-2.4z" fill="rgba(16, 50, 13, 1)" stroke="none"/>
  <path d="M315.4 157c1.3-6.7 4.1-13.7 6.8-20.3 6.6-16.4 14.1-35-3.9-49.7-19.2-15.7-44.2-5-61.7 6.7-16.2 10.8-28.9 24.1-31.7 27.2-2.5-2-5.4-3.1-8.4-3.1h-32.2c-3.2 0-6.3 1.3-8.9 3.5-.1-.2-.3-.4-.5-.6-.6-.6-14.3-15.8-32.3-27.8C125 81.2 100 70.5 80.9 86.2 63 100.9 70.5 119.5 77 135.9c2.7 6.7 5.5 13.6 6.8 20.3.8 3.9-1.3 8.7-3.9 14.8-4.9 11.4-11.7 27-3.3 49.2 4.6 12.3 12.9 16.2 19 17.3 1.6.3 3.3.4 5 .4 5.2 0 11-1.3 17.3-4l-27.6 48.7c-1 1.7-.8 3.9.3 5.4 1.2 1.6 3.2 2.3 5.1 1.9l29-6.5 5 34.3c.3 2.1 1.9 3.8 4.1 4.2.3.1.6.1.9.1 1.8 0 3.5-1 4.4-2.6l62.4-114 65.7 120.1c.9 1.6 2.6 2.6 4.4 2.6.3 0 .6 0 .9-.1 2.1-.4 3.8-2.1 4.1-4.2l5-34.3 29 6.5c1.9.4 3.9-.3 5.1-1.9 1.2-1.6 1.3-3.7.3-5.4l-29.6-52.2c4.4 1.4 8.6 2.2 12.5 2.2 1.7 0 3.4-.1 5-.4 6.1-1.1 14.4-5 19-17.3 8.4-22.2 1.6-37.8-3.3-49.2-2.9-6-5-10.8-4.2-14.8zm-131.2-29.2h32.2c4.1 0 10.3 10.9 10.3 27.2 0 16.4-6.2 27.2-10.3 27.2h-32.2c-4.1 0-10.3-10.9-10.3-27.2 0-16.4 6.2-27.2 10.3-27.2zm-87 99.9c-5.3-1-9-4.6-11.5-11-6.9-18.4-1.6-30.8 3.1-41.7 3-7 5.9-13.7 4.6-20.7-1.5-7.7-4.4-15.1-7.3-22.2-7.2-18-10.8-28.6.9-38.2 11.6-9.5 28.3-7.1 49.7 7.2 17 11.3 30.5 26.1 30.6 26.3.6.7 1.4 1.1 2.2 1.4-3.5 6.6-5.6 15.8-5.6 26.3 0 9.8 1.8 18.4 4.9 24.9-.3.2-.5.4-.8.7-27 30.8-55.5 49.7-70.8 47zm40 73.9l-3.6-24.8c-.2-1.4-1-2.6-2.1-3.4-1.1-.8-2.6-1.1-3.9-.8l-23.2 5.2 30.1-53.1c13-8.7 26.8-21.3 40.2-36.5 2.8 2.6 6 4 9.5 4h12.9l-59.9 109.4zm133.5-71.8l30.7 54.2-23.2-5.2c-1.4-.3-2.8 0-3.9.8s-1.9 2-2.1 3.4l-3.6 24.8L207 195.2l1.5-2.8h7.9c2.9 0 5.7-1 8.1-2.9 13.4 15.2 27.4 27.8 40.3 36.5 1.9 1.3 3.8 2.5 5.7 3.6.1-.1.1 0 .2.2zm42.6-12.3c-2.4 6.4-6.2 10-11.5 11-15.4 2.8-43.8-16.1-70.9-47 3.6-6.7 5.7-15.9 5.7-26.5 0-10.4-2.1-19.6-5.6-26.2.2-.2.4-.3.6-.5.1-.1 13.4-14.8 30.5-26.2 21.5-14.3 38.3-16.8 49.9-7.3 11.7 9.6 8.1 20.2.9 38.2-2.9 7.1-5.8 14.5-7.3 22.2-1.3 7 1.5 13.6 4.6 20.7 4.7 10.9 10 23.2 3.1 41.6z" fill="rgba(16, 50, 13, 1)" stroke="none"/>
  <path d="M310.5 105.3c.1-2.1-.6-6-6.5-8.4-23.3-9.4-63.1 28.9-67.6 33.2-1.6 1.6-2 4.1-.8 6.1.9 1.6 2.6 2.5 4.3 2.5.5 0 .9-.1 1.4-.2.2 0 16.6-4.8 32.9-10.7 33.1-11.8 36.1-17.8 36.3-22.5zm-41.8 14c-2.3.8-4.6 1.6-6.8 2.3 11.8-8.8 24.9-16.2 33.9-16.2 1.1 0 2.1.1 3.1.3-3.1 2.3-10.8 6.7-30.2 13.6z" fill="rgba(16, 50, 13, 1)" stroke="none"/>
</svg>
</g></svg></g></g>
<!-- /image 03519 -->

<!-- image 79782 -->
<g id="transformed-79782" data-image="79782" transform="translate(61.79561686446438, 14.53561686446438) rotate(332, 37.10438313553563, 37.10438313553562)"><g><svg version="1.1" width="74.20876627107126px" height="74.20876627107124px" viewBox="0 0 74.20876627107126 74.20876627107124"><g id="original-79782"><svg xmlns="http://www.w3.org/2000/svg" viewBox="0 0 400 400" xmlns:xlink="http://www.w3.org/1999/xlink" version="1.1" preserveAspectRatio="xMidYMid meet">
  <path d="M291.9 270.6v-47.1c0-51.1-41.6-92.8-92.8-92.8s-92.8 41.6-92.8 92.8v46.7c-5.5 2.8-9.2 8.5-9.2 15.1V308c0 9.4 7.6 17 17 17h169.2c9.4 0 17-7.6 17-17v-22.8c.1-6.2-3.3-11.7-8.4-14.6zm-92.7-129.9c45.6 0 82.8 37.1 82.8 82.8v44.8H116.4v-44.8c0-45.7 37.1-82.8 82.8-82.8zm-52.5 137.6V315h-13.9v-36.8h13.9zm10 0h13.9V315h-13.9v-36.7zm23.9 0h13.9V315h-13.9v-36.7zm23.9 0h13.9V315h-13.9v-36.7zm23.9 0h13.9V315h-13.9v-36.7zm23.9 0h13.9V315h-13.9v-36.7zM107.2 308v-22.8c0-3.9 3.1-7 7-7h8.5V315h-8.5c-3.8 0-7-3.1-7-7zm183.2 0c0 3.9-3.1 7-7 7h-7.2v-36.8h7.2c3.9 0 7 3.1 7 7V308z" fill="rgba(16, 50, 13, 1)" stroke="none"/>
  <path d="M200.5 125.7c14.3 0 26-11.6 26-26 0-14.3-11.6-26-26-26-14.3 0-26 11.6-26 26 0 14.3 11.7 26 26 26zm0-41.9c8.8 0 16 7.2 16 16s-7.2 16-16 16-16-7.2-16-16c0-8.9 7.2-16 16-16z" fill="rgba(16, 50, 13, 1)" stroke="none"/>
</svg>
</g></svg></g></g>
<!-- /image 79782 -->
</defs><rect x="0" y="0" width="250" height="250" fill="rgba(25, 85, 20, 1)"></rect><use xlink:href="#transformed-64726" transform="translate(-250, -250)"></use><use xlink:href="#transformed-64726" transform="translate(0, -250)"></use><use xlink:href="#transformed-64726" transform="translate(250, -250)"></use><use xlink:href="#transformed-64726" transform="translate(-250, 0)"></use><use xlink:href="#transformed-64726" transform="translate(0, 0)"></use><use xlink:href="#transformed-64726" transform="translate(250, 0)"></use><use xlink:href="#transformed-64726" transform="translate(-250, 250)"></use><use xlink:href="#transformed-64726" transform="translate(0, 250)"></use><use xlink:href="#transformed-64726" transform="translate(250, 250)"></use><use xlink:href="#transformed-28386" transform="translate(-250, -250)"></use><use xlink:href="#transformed-28386" transform="translate(0, -250)"></use><use xlink:href="#transformed-28386" transform="translate(250, -250)"></use><use xlink:href="#transformed-28386" transform="translate(-250, 0)"></use><use xlink:href="#transformed-28386" transform="translate(0, 0)"></use><use xlink:href="#transformed-28386" transform="translate(250, 0)"></use><use xlink:href="#transformed-28386" transform="translate(-250, 250)"></use><use xlink:href="#transformed-28386" transform="translate(0, 250)"></use><use xlink:href="#transformed-28386" transform="translate(250, 250)"></use><use xlink:href="#transformed-20659" transform="translate(-250, -250)"></use><use xlink:href="#transformed-20659" transform="translate(0, -250)"></use><use xlink:href="#transformed-20659" transform="translate(250, -250)"></use><use xlink:href="#transformed-20659" transform="translate(-250, 0)"></use><use xlink:href="#transformed-20659" transform="translate(0, 0)"></use><use xlink:href="#transformed-20659" transform="translate(250, 0)"></use><use xlink:href="#transformed-20659" transform="translate(-250, 250)"></use><use xlink:href="#transformed-20659" transform="translate(0, 250)"></use><use xlink:href="#transformed-20659" transform="translate(250, 250)"></use><use xlink:href="#transformed-85956" transform="translate(-250, -250)"></use><use xlink:href="#transformed-85956" transform="translate(0, -250)"></use><use xlink:href="#transformed-85956" transform="translate(250, -250)"></use><use xlink:href="#transformed-85956" transform="translate(-250, 0)"></use><use xlink:href="#transformed-85956" transform="translate(0, 0)"></use><use xlink:href="#transformed-85956" transform="translate(250, 0)"></use><use xlink:href="#transformed-85956" transform="translate(-250, 250)"></use><use xlink:href="#transformed-85956" transform="translate(0, 250)"></use><use xlink:href="#transformed-85956" transform="translate(250, 250)"></use><use xlink:href="#transformed-78250" transform="translate(-250, -250)"></use><use xlink:href="#transformed-78250" transform="translate(0, -250)"></use><use xlink:href="#transformed-78250" transform="translate(250, -250)"></use><use xlink:href="#transformed-78250" transform="translate(-250, 0)"></use><use xlink:href="#transformed-78250" transform="translate(0, 0)"></use><use xlink:href="#transformed-78250" transform="translate(250, 0)"></use><use xlink:href="#transformed-78250" transform="translate(-250, 250)"></use><use xlink:href="#transformed-78250" transform="translate(0, 250)"></use><use xlink:href="#transformed-78250" transform="translate(250, 250)"></use><use xlink:href="#transformed-63154" transform="translate(-250, -250)"></use><use xlink:href="#transformed-63154" transform="translate(0, -250)"></use><use xlink:href="#transformed-63154" transform="translate(250, -250)"></use><use xlink:href="#transformed-63154" transform="translate(-250, 0)"></use><use xlink:href="#transformed-63154" transform="translate(0, 0)"></use><use xlink:href="#transformed-63154" transform="translate(250, 0)"></use><use xlink:href="#transformed-63154" transform="translate(-250, 250)"></use><use xlink:href="#transformed-63154" transform="translate(0, 250)"></use><use xlink:href="#transformed-63154" transform="translate(250, 250)"></use><use xlink:href="#transformed-92578" transform="translate(-250, -250)"></use><use xlink:href="#transformed-92578" transform="translate(0, -250)"></use><use xlink:href="#transformed-92578" transform="translate(250, -250)"></use><use xlink:href="#transformed-92578" transform="translate(-250, 0)"></use><use xlink:href="#transformed-92578" transform="translate(0, 0)"></use><use xlink:href="#transformed-92578" transform="translate(250, 0)"></use><use xlink:href="#transformed-92578" transform="translate(-250, 250)"></use><use xlink:href="#transformed-92578" transform="translate(0, 250)"></use><use xlink:href="#transformed-92578" transform="translate(250, 250)"></use><use xlink:href="#transformed-03519" transform="translate(-250, -250)"></use><use xlink:href="#transformed-03519" transform="translate(0, -250)"></use><use xlink:href="#transformed-03519" transform="translate(250, -250)"></use><use xlink:href="#transformed-03519" transform="translate(-250, 0)"></use><use xlink:href="#transformed-03519" transform="translate(0, 0)"></use><use xlink:href="#transformed-03519" transform="translate(250, 0)"></use><use xlink:href="#transformed-03519" transform="translate(-250, 250)"></use><use xlink:href="#transformed-03519" transform="translate(0, 250)"></use><use xlink:href="#transformed-03519" transform="translate(250, 250)"></use><use xlink:href="#transformed-79782" transform="translate(-250, -250)"></use><use xlink:href="#transformed-79782" transform="translate(0, -250)"></use><use xlink:href="#transformed-79782" transform="translate(250, -250)"></use><use xlink:href="#transformed-79782" transform="translate(-250, 0)"></use><use xlink:href="#transformed-79782" transform="translate(0, 0)"></use><use xlink:href="#transformed-79782" transform="translate(250, 0)"></use><use xlink:href="#transformed-79782" transform="translate(-250, 250)"></use><use xlink:href="#transformed-79782" transform="translate(0, 250)"></use><use xlink:href="#transformed-79782" transform="translate(250, 250)"></use></svg>