<svg version="1.1"
      xmlns="http://www.w3.org/2000/svg"
      xmlns:xlink="http://www.w3.org/1999/xlink"  id="snapshot-01943" width="250" height="250" viewBox="0 0 250 250"><desc>This image was made on Patterninja.com</desc><defs>
<!-- image 11264 -->
<g id="transformed-11264" data-image="11264" transform="translate(223.6669292741417, -3.884760409888779) rotate(3, 15.353070725858315, 15.60476040988878)"><g><svg version="1.1" width="30.70614145171663px" height="31.20952081977756px" viewBox="0 0 30.70614145171663 31.20952081977756"><g id="original-11264"><svg xmlns="http://www.w3.org/2000/svg" id="Layer_1" viewBox="0 0 400 400" xmlns:xlink="http://www.w3.org/1999/xlink" version="1.1">
  <path d="M309.4 144.2c-.7-1.1-1.9-1.9-3.2-2.2-1.6-.3-39-7.6-59.2 20.4-1.4-.6-3.1-1.4-5.2-2.2 6.6-3.5 15.7-9.2 24.9-17.4 4.5-4 9.2-8.9 13.7-14.7.2-.2.4-.5.6-.7 11.6-15.1 21.8-36.2 22.8-64.5.1-2.8-2.1-5.1-4.8-5.2-2.8-.1-5.1 2.1-5.2 4.8-.8 20.9-6.8 39.5-18.1 55.4-8.2-6.2-27-23-24.6-44.4.3-2.7-1.7-5.2-4.4-5.5-2.7-.3-5.2 1.7-5.5 4.4-1.6 14 3.7 28.3 15.3 41.3 4.8 5.4 9.7 9.5 13.1 12.1-2.8 3.3-5.9 6.4-9.2 9.4-9.6 8.7-19.3 14.3-25.4 17.4-2.7-6.8-8.1-24.7.9-38.4 1.5-2.3.9-5.4-1.4-6.9s-5.4-.9-6.9 1.4c-11 16.9-5.6 37.3-2.3 46.4-14-3.2-32.6-4.9-52.7.3-.4-.2-1.1-.5-2.1-.9 3.4-9.4 8.3-29.3-2.5-45.8-1.5-2.3-4.6-3-6.9-1.4-2.3 1.5-3 4.6-1.4 6.9 8 12.1 4.5 27.7 1.8 35.8-5.8-3.3-13.2-8.2-20.6-14.9-3.3-3-6.4-6.1-9.2-9.4 3.4-2.6 8.3-6.7 13.1-12.1 11.5-13 16.8-27.3 15.3-41.3-.3-2.7-2.8-4.7-5.5-4.4-2.7.3-4.7 2.8-4.4 5.5 1.2 11.2-3 22.4-12.7 33.4-4.4 5-8.9 8.7-12 11.1-11.5-15.9-17.6-34.5-18.3-55.4-.1-2.8-2.4-4.9-5.2-4.8-2.8.1-4.9 2.4-4.8 5.2 1 28.3 11.2 49.4 22.8 64.5.2.3.4.5.6.7 4.5 5.8 9.3 10.7 13.7 14.7 9 8.1 17.9 13.7 24.5 17.2-1.9.8-3.8 1.6-5.7 2.5-6.9-7.8-26.7-26-59.5-24.6-1.4.1-2.7.7-3.6 1.8-.9 1.1-1.3 2.4-1.2 3.8.2 1.6 4.7 37.9 36.2 59.8.2 15.3 3 88.5 35.4 121 10.4 10.5 22.9 15.8 37.1 15.8 14.2 0 26.6-5.3 37-15.8 32.3-32.6 34.7-105.9 34.8-121.1 8-5.8 34.5-26.8 40.7-55.3.3-1.2.1-2.6-.6-3.7zm-47.8 52.3c-1.4.9-2.3 2.5-2.2 4.2 0 .8.5 83.8-31.9 116.6-8.5 8.6-18.3 12.8-29.9 12.8-11.6 0-21.4-4.2-30-12.8-32.6-32.7-32.5-115.8-32.5-116.6 0-1.7-.9-3.3-2.3-4.2-22.4-14.5-30.3-37.9-32.9-48.5 31.2 1.2 47.1 22.8 47.8 23.8 1.5 2 4.2 2.7 6.4 1.5 46.3-24.6 91.8-.3 92.2 0 2.4 1.3 5.3.5 6.7-1.8 6.5-10.9 16.9-17.6 31-19.7 5.8-.9 11.1-.8 14.8-.5-8.7 26.1-36.9 45-37.2 45.2z" fill="rgba(221, 221, 221, 1)" stroke="none"/>
  <circle cx="242.7" cy="209.5" r="8" fill="rgba(221, 221, 221, 1)" stroke="none"/>
  <circle cx="155.1" cy="209.5" r="8" fill="rgba(221, 221, 221, 1)" stroke="none"/>
  <path d="M282.4 156.5c-16.5-.9-22.5 14.8-22.8 15.5-1 2.6.4 5.5 2.9 6.4.6.2 1.2.3 1.7.3 2 0 3.9-1.2 4.7-3.3 0-.1 3.6-9.5 12.9-9 2.7.1 5.1-2 5.3-4.7.2-2.7-1.9-5-4.7-5.2z" fill="rgba(221, 221, 221, 1)" stroke="none"/>
  <path d="M115.9 156.2c-2.7-.1-5.1 2-5.2 4.8-.1 2.8 2 5.1 4.8 5.2.1 0 10.2.5 12.5 9.5.6 2.2 2.6 3.7 4.8 3.7.4 0 .9-.1 1.3-.2 2.7-.7 4.3-3.4 3.5-6.1-4.2-16-21-16.9-21.7-16.9z" fill="rgba(221, 221, 221, 1)" stroke="none"/>
  <path d="M198.5 254.1c-13.6 0-24.8 11-24.8 24.5s11.1 24.5 24.8 24.5c13.6 0 24.8-11 24.8-24.5-.1-13.6-11.2-24.5-24.8-24.5zm0 38.9c-8.1 0-14.8-6.5-14.8-14.5s6.6-14.5 14.8-14.5 14.8 6.5 14.8 14.5c-.1 8-6.7 14.5-14.8 14.5z" fill="rgba(221, 221, 221, 1)" stroke="none"/>
  <path d="M212.4 311.1c-14.2 9.6-27.2.5-27.8.1-2.2-1.6-5.3-1.1-7 1.1-1.6 2.2-1.2 5.4 1.1 7 .5.4 8.7 6.2 20 6.2 5.8 0 12.4-1.5 19.2-6.1 2.3-1.5 2.9-4.6 1.4-6.9-1.5-2.3-4.6-3-6.9-1.4z" fill="rgba(221, 221, 221, 1)" stroke="none"/>
</svg>
</g></svg></g></g>
<!-- /image 11264 -->

<!-- image 26473 -->
<g id="transformed-26473" data-image="26473" transform="translate(81.8654479609453, -5.954552039054699) rotate(0, 19.034552039054702, 19.0345520390547)"><g><svg version="1.1" width="38.069104078109405px" height="38.0691040781094px" viewBox="0 0 38.069104078109405 38.0691040781094"><g id="original-26473"><svg xmlns="http://www.w3.org/2000/svg" id="Layer_1" viewBox="0 0 400 400" xmlns:xlink="http://www.w3.org/1999/xlink" version="1.1">
  <path d="M285 204.4h12.4c2.8 0 5-2.2 5-5s-2.2-5-5-5h-13.8l17.4-18.9c1.9-2 1.8-5.2-.3-7.1-2-1.9-5.2-1.8-7.1.3l-23.7 25.7h-24l34.1-32.5c1.4-1.4 1.9-3.5 1.2-5.3-.7-1.9-2.4-3.2-4.4-3.3l-29.4-2.1-.9-28.3c-.1-2-1.3-3.7-3.1-4.5-1.8-.7-3.9-.3-5.4 1.1l-34.3 33.6v-23.9l24.9-23c2-1.9 2.2-5 .3-7.1-1.9-2-5-2.2-7.1-.3l-18.1 16.7v-14.7c0-2.8-2.2-5-5-5s-5 2.2-5 5v14.7l-18.1-16.7c-2-1.9-5.2-1.8-7.1.3-1.9 2-1.8 5.2.3 7.1l24.9 23v22.7L161.5 118c-1.4-1.4-3.4-1.9-5.3-1.3-1.9.7-3.2 2.4-3.3 4.4l-2.1 29.4-28.3.9c-2 .1-3.7 1.3-4.5 3.1-.7 1.8-.3 3.9 1.1 5.4l33.9 34.6h-22.7l-23.7-25.7c-1.9-2-5-2.2-7.1-.3-2 1.9-2.2 5-.3 7.1l17.4 18.9h-16.4c-2.8 0-5 2.2-5 5s2.2 5 5 5h15l-16 17.3c-1.9 2-1.8 5.2.3 7.1 1 .9 2.2 1.3 3.4 1.3 1.3 0 2.7-.5 3.7-1.6l22.3-24.1h22.3l-33.5 32c-1.4 1.4-1.9 3.5-1.2 5.3.7 1.9 2.4 3.2 4.4 3.3l29.4 2.1.9 28.3c.1 2 1.3 3.7 3.1 4.5.6.2 1.2.4 1.9.4 1.3 0 2.6-.5 3.5-1.4l34.3-33.6v25.3l-24.9 23c-2 1.9-2.2 5-.3 7.1 1.9 2 5 2.2 7.1.3l18.1-16.7v13.8c0 2.8 2.2 5 5 5s5-2.2 5-5v-13.8l18.1 16.7c1 .9 2.2 1.3 3.4 1.3 1.3 0 2.7-.5 3.7-1.6 1.9-2 1.8-5.2-.3-7.1l-24.9-23v-23.9l32.1 33.6c1 1 2.3 1.5 3.6 1.5.6 0 1.1-.1 1.7-.3 1.9-.7 3.2-2.4 3.3-4.4l2.1-29.4 28.3-.9c2-.1 3.7-1.3 4.5-3.1.7-1.8.3-3.9-1.1-5.4l-33.3-34h26.3l22.3 24.1c1 1.1 2.3 1.6 3.7 1.6 1.2 0 2.4-.4 3.4-1.3 2-1.9 2.2-5 .3-7.1L285 204.4zM237.5 153c-.3.2-.7.4-.9.7l-13.5 13.7c-1.9 2-1.9 5.1.1 7.1 1 1 2.2 1.4 3.5 1.4 1.3 0 2.6-.5 3.6-1.5l13.3-13.6 21.3 1.5-33.5 32h-27.6V167l33.1-32.5.6 18.5zm-83.8 7.4l15.4 15.1c1 1 2.2 1.4 3.5 1.4 1.3 0 2.6-.5 3.6-1.5 1.9-2 1.9-5.1-.1-7.1l-15.4-15.1 1.4-20.1 31.8 33.3v28.1H167L134.2 161l19.5-.6zm6.4 83.9c.1-.1.2-.2.4-.3l15.6-15.8c1.9-2 1.9-5.1-.1-7.1-2-1.9-5.1-1.9-7.1.1L153.3 237l-.2.2-20.4-1.4 32.9-31.4h28.2v26.7l-33.1 32.5-.6-19.3zm84.1-6.5c-.2-.2-.3-.4-.5-.6l-13.9-13.7c-2-1.9-5.1-1.9-7.1.1-1.9 2-1.9 5.1.1 7.1l13.9 13.7.2.2-1.5 20.7-31.6-33v-27.7H231l32.2 32.8-19 .4z" fill="rgba(221, 221, 221, 1)" stroke="none"/>
</svg>
</g></svg></g></g>
<!-- /image 26473 -->

<!-- image 39697 -->
<g id="transformed-39697" data-image="39697" transform="translate(47.75655941366996, -5.600889989472238) rotate(359, 19.213440586330034, 18.930889989472238)"><g><svg version="1.1" width="38.42688117266007px" height="37.861779978944476px" viewBox="0 0 38.42688117266007 37.861779978944476"><g id="original-39697"><svg xmlns="http://www.w3.org/2000/svg" id="Layer_1" viewBox="0 0 400 400" xmlns:xlink="http://www.w3.org/1999/xlink" version="1.1">
  <path d="M314.3 192.6H292l14.8-14c2-1.9 2.1-5.1.2-7.1-1.9-2-5.1-2.1-7.1-.2l-22.5 21.3h-18.3l30.9-42.2c1.2-1.6 1.3-3.7.3-5.5a5.1 5.1 0 0 0-4.9-2.5l-49 5.3 8.9-14.2 30.7-7.7c2.7-.7 4.3-3.4 3.6-6.1-.7-2.7-3.4-4.3-6.1-3.6l-20.5 5.2 11.6-18.4c1.5-2.3.8-5.4-1.6-6.9-2.3-1.5-5.4-.8-6.9 1.6l-11.5 18.3-5-20.2c-.7-2.7-3.4-4.3-6-3.7-2.7.7-4.3 3.4-3.7 6l7.3 29.6-11.3 18-22.1-50.2c-.8-1.8-2.6-3-4.6-3-2 0-3.8 1.2-4.6 3l-22.2 50.4-10.9-17.4 6.7-30.2c.6-2.7-1.1-5.4-3.8-6-2.7-.6-5.4 1.1-6 3.8l-4.5 20.3-11.8-18.8c-1.5-2.3-4.6-3-6.9-1.6-2.3 1.5-3 4.6-1.6 6.9l11.9 18.9-20.7-4.7c-2.7-.6-5.4 1.1-6 3.8-.6 2.7 1.1 5.4 3.8 6l30.4 6.9 8.8 14-48.8-5.3c-2-.2-3.9.8-4.9 2.5-1 1.7-.9 3.9.3 5.5l30.9 42.2H122l-22.5-21.3c-2-1.9-5.2-1.8-7.1.2-1.9 2-1.8 5.2.2 7.1l14.8 14H84.2c-2.8 0-5 2.2-5 5s2.2 5 5 5H109l-14.9 15.6c-1.9 2-1.8 5.2.2 7.1 1 .9 2.2 1.4 3.4 1.4 1.3 0 2.6-.5 3.6-1.5l21.4-22.5h16.6l-30.7 42c-1.2 1.6-1.3 3.7-.3 5.5 1 1.7 2.9 2.7 4.9 2.5l49-5.3L151 265l-28.3 7.1c-2.7.7-4.3 3.4-3.6 6.1.6 2.3 2.6 3.8 4.8 3.8.4 0 .8 0 1.2-.2l18.2-4.6-9.5 15.1c-1.5 2.3-.8 5.4 1.6 6.9.8.5 1.7.8 2.7.8 1.7 0 3.3-.8 4.2-2.3l11.2-17.8 5.5 22.5c.6 2.3 2.6 3.8 4.9 3.8.4 0 .8 0 1.2-.1 2.7-.7 4.3-3.4 3.7-6l-7.8-31.7v-.1l11.8-18.8 22.1 50.2c.8 1.8 2.6 3 4.6 3 2 0 3.8-1.2 4.6-3l22.1-50 11.5 18.4-7.1 31.9c-.6 2.7 1.1 5.4 3.8 6 .4.1.7.1 1.1.1 2.3 0 4.4-1.6 4.9-3.9l4.9-22 11.2 17.7c.9 1.5 2.6 2.3 4.2 2.3.9 0 1.8-.2 2.7-.8 2.3-1.5 3-4.6 1.6-6.9l-9.9-15.8 19 4.3c.4.1.7.1 1.1.1 2.3 0 4.3-1.6 4.9-3.9.6-2.7-1.1-5.4-3.8-6l-28.7-6.5-11-17.4 49.2 5.3c2 .2 3.9-.8 4.9-2.5 1-1.7.9-3.9-.3-5.5l-30.7-42h17.6l21.4 22.5c1 1 2.3 1.5 3.6 1.5 1.2 0 2.5-.5 3.4-1.4 2-1.9 2.1-5.1.2-7.1L291 202.5h23.5c2.8 0 5-2.2 5-5s-2.5-4.9-5.2-4.9zm-39-39l-28.5 39h-38.4l21.4-34 45.5-5zm-76-43.8l20.3 46-20.4 32.4L179 156l20.3-46.2zm-75.9 43.8l45.4 4.9 21.4 34h-38.3l-28.5-38.9zm0 87.7l28.3-38.7h38.4L169 236.4l-45.6 4.9zm75.9 43.9l-20.3-46 20.2-32.1 20.3 32.3-20.2 45.8zm76-43.9l-45.8-5-21.2-33.7h38.6l28.4 38.7z" fill="rgba(221, 221, 221, 1)" stroke="none"/>
</svg>
</g></svg></g></g>
<!-- /image 39697 -->

<!-- image 75639 -->
<g id="transformed-75639" data-image="75639" transform="translate(14.622835385507614, -1.6871646144923833) rotate(354, 16.497164614492387, 16.497164614492384)"><g><svg version="1.1" width="32.994329228984775px" height="32.99432922898477px" viewBox="0 0 32.994329228984775 32.99432922898477"><g id="original-75639"><svg xmlns="http://www.w3.org/2000/svg" id="Layer_1" viewBox="0 0 400 400" xmlns:xlink="http://www.w3.org/1999/xlink" version="1.1">
  <path d="M313.5 159.3c-.9-2.6-3.8-4-6.4-3.1l-20.4 7.1 8.7-18.9c1.2-2.5.1-5.5-2.4-6.6-2.5-1.2-5.5-.1-6.6 2.4l-12.8 27.7-19.6 6.8 9-19.4c1.2-2.5.1-5.5-2.4-6.6-2.5-1.2-5.5-.1-6.6 2.4l-11.2 24.2-29.4-23.4 20.8-16.8c2.1-1.7 2.5-4.9.8-7-1.7-2.1-4.9-2.5-7-.8l-16.2 13 2.1-19.1 24.1-19.4c2.1-1.7 2.5-4.9.8-7-1.7-2.1-4.9-2.5-7-.8l-16.2 13.1 2.5-22c.3-2.7-1.7-5.2-4.4-5.5-2.8-.3-5.2 1.7-5.5 4.4l-2.5 22.2-13.2-16.6c-1.7-2.2-4.9-2.5-7-.8-2.2 1.7-2.5 4.9-.8 7l19.5 24.4-2.2 19.2-13.2-16.6c-1.7-2.2-4.9-2.5-7-.8-2.2 1.7-2.5 4.9-.8 7l17.6 22-30.7 12-3.8-26.8c-.4-2.7-2.9-4.6-5.7-4.2-2.7.4-4.6 2.9-4.2 5.7l2.9 20.2-14-10.9-4.4-30.7c-.4-2.7-2.9-4.6-5.7-4.2-2.7.4-4.6 2.9-4.2 5.7l2.9 20.2-18.4-14.7c-2.2-1.7-5.3-1.4-7 .8-1.7 2.2-1.4 5.3.8 7l19.3 15.4-21.4 2.9c-2.7.4-4.6 2.9-4.3 5.6.3 2.5 2.5 4.3 4.9 4.3h.7l30.8-4.2 14.3 11.4-21.4 2.9c-2.7.4-4.6 2.9-4.3 5.6.3 2.5 2.5 4.3 4.9 4.3h.7l26.1-3.6-4.8 31.8-26.3-12c-2.5-1.1-5.5 0-6.6 2.5-1.1 2.5 0 5.5 2.5 6.6l20 9.1-21.3 7.4L92.1 208c-2.5-1.1-5.5 0-6.6 2.5-1.1 2.5 0 5.5 2.5 6.6l19.3 8.8-17.6 6.1c-2.6.9-4 3.8-3.1 6.4.7 2.1 2.7 3.4 4.7 3.4.5 0 1.1-.1 1.6-.3l17.3-6-8.7 18.9c-1.2 2.5-.1 5.5 2.4 6.6.7.3 1.4.5 2.1.5 1.9 0 3.7-1.1 4.5-2.9l12.8-27.7 20.8-7.3-8.4 18.2c-1.2 2.5-.1 5.5 2.4 6.6.7.3 1.4.5 2.1.5 1.9 0 3.7-1.1 4.5-2.9l11-23.9 32.1 25.6-22.3 18c-2.1 1.7-2.5 4.9-.8 7 1 1.2 2.4 1.9 3.9 1.9 1.1 0 2.2-.4 3.1-1.1l16-12.9-2.1 18.4-24.5 19.7c-2.1 1.7-2.5 4.9-.8 7 1 1.2 2.4 1.9 3.9 1.9 1.1 0 2.2-.4 3.1-1.1l16.6-13.4-2.2 19.4c-.3 2.7 1.7 5.2 4.4 5.5h.6c2.5 0 4.7-1.9 5-4.4l2.1-18.9 12.9 16.2c1 1.2 2.4 1.9 3.9 1.9 1.1 0 2.2-.4 3.1-1.1 2.2-1.7 2.5-4.9.8-7l-19.1-24 2.2-19.6 13.4 16.8c1 1.2 2.4 1.9 3.9 1.9 1.1 0 2.2-.4 3.1-1.1 2.2-1.7 2.5-4.9.8-7l-19.2-24 32.2-12.6 2.3 26.5c.2 2.6 2.4 4.6 5 4.6h.4c2.8-.2 4.8-2.7 4.5-5.4l-1.9-21.5 15 11.9 2.7 31c.2 2.6 2.4 4.6 5 4.6h.4c2.8-.2 4.8-2.7 4.5-5.4l-1.9-21.5 18.4 14.7c.9.7 2 1.1 3.1 1.1 1.5 0 2.9-.6 3.9-1.9 1.7-2.2 1.4-5.3-.8-7L275 252.9l20.3-1.7c2.8-.2 4.8-2.6 4.6-5.4-.2-2.8-2.6-4.8-5.4-4.6l-30.9 2.6-13.6-11.5 20.3-1.7c2.8-.2 4.8-2.6 4.6-5.4-.2-2.8-2.6-4.8-5.4-4.6l-27.3 2.3 4.9-32.8 25.4 11.5c.7.3 1.4.5 2.1.5 1.9 0 3.7-1.1 4.6-2.9 1.1-2.5 0-5.5-2.5-6.6l-18.8-8.5 18.3-6.4 28.8 13.1c.7.3 1.4.5 2.1.5 1.9 0 3.7-1.1 4.6-2.9 1.1-2.5 0-5.5-2.5-6.6l-19.3-8.8 20.6-7.2c2.5-1 3.9-3.9 3-6.5zm-104.1 2.2l25.2 20.1-28.5 10 3.3-30.1zm-13.2 27.9l-22.4-17.9 25.5-10-3.1 27.9zm-6.2 7.8l-26.9 9.4 4.2-27.5 22.7 18.1zm4.3 9l-3.5 30.9-25.8-20.6 29.3-10.3zm9.8 2.3l22.7 18.1-25.9 10.2 3.2-28.3zm6.3-7.9l26.5-9.3-4.1 27.1-22.4-17.8z" fill="rgba(221, 221, 221, 1)" stroke="none"/>
</svg>
</g></svg></g></g>
<!-- /image 75639 -->

<!-- image 72939 -->
<g id="transformed-72939" data-image="72939" transform="translate(172.85956816958134, -6.490431830418684) rotate(4, 18.66043183041868, 18.660431830418684)"><g><svg version="1.1" width="37.32086366083736px" height="37.32086366083737px" viewBox="0 0 37.32086366083736 37.32086366083737"><g id="original-72939"><svg xmlns="http://www.w3.org/2000/svg" viewBox="0 0 400 400" xmlns:xlink="http://www.w3.org/1999/xlink" version="1.1" preserveAspectRatio="xMidYMid meet">
  <path d="M284.5 204.2h12.4c2.8 0 5-2.2 5-5s-2.2-5-5-5h-13.8l17.4-18.9c1.9-2 1.8-5.2-.3-7.1-2-1.9-5.2-1.8-7.1.3l-23.7 25.7h-58.3l42.4-42.4 34.9 1.4h.2c2.7 0 4.9-2.1 5-4.8.1-2.8-2-5.1-4.8-5.2l-25.7-1 9.7-9.7c2-2 2-5.1 0-7.1s-5.1-2-7.1 0l-8.7 8.7-.9-23.6c-.1-2.8-2.4-4.9-5.2-4.8-2.8.1-4.9 2.4-4.8 5.2l1.3 32.8-44.1 44.1V129l24.9-23c2-1.9 2.2-5 .3-7.1-1.9-2-5-2.2-7.1-.3l-18.1 16.7v-14.7c0-2.8-2.2-5-5-5s-5 2.2-5 5v14.7l-18.1-16.7c-2-1.9-5.2-1.8-7.1.3-1.9 2-1.8 5.2.3 7.1l24.9 23v58.3l-40.5-40.5 1.4-34.9c.1-2.8-2-5.1-4.8-5.2-2.8-.1-5.1 2-5.2 4.8l-1 25.7-11.6-11.6c-2-2-5.1-2-7.1 0s-2 5.1 0 7.1l10.6 10.6-23.6.9c-2.8.1-4.9 2.4-4.8 5.2.1 2.7 2.3 4.8 5 4.8h.2l32.8-1.3 41.3 41.3h-56.3L106 168.5c-1.9-2-5-2.2-7.1-.3-2 1.9-2.2 5-.3 7.1l17.4 18.9H99.8c-2.8 0-5 2.2-5 5s2.2 5 5 5h15l-16 17.3c-1.9 2-1.8 5.2.3 7.1 1 .9 2.2 1.3 3.4 1.3 1.3 0 2.7-.5 3.7-1.6l22.3-24.1H187l-40.3 40.3-32.8-1.3c-2.8-.1-5.1 2-5.2 4.8-.1 2.8 2 5.1 4.8 5.2l23.6.9-10.6 10.6c-2 2-2 5.1 0 7.1 1 1 2.3 1.5 3.5 1.5 1.3 0 2.6-.5 3.5-1.5l11.6-11.6 1 25.7c.1 2.7 2.3 4.8 5 4.8h.2c2.8-.1 4.9-2.4 4.8-5.2l-1.4-34.9 38.5-38.5v58.3l-24.9 23c-2 1.9-2.2 5-.3 7.1 1.9 2 5 2.2 7.1.3l18.1-16.7v13.8c0 2.8 2.2 5 5 5s5-2.2 5-5v-13.8l18.1 16.7c1 .9 2.2 1.3 3.4 1.3 1.3 0 2.7-.5 3.7-1.6 1.9-2 1.8-5.2-.3-7.1l-24.9-23v-58.8l42.2 42.2-1.3 32.8c-.1 2.8 2 5.1 4.8 5.2h.2c2.7 0 4.9-2.1 5-4.8l.9-23.6 8.7 8.7c1 1 2.3 1.5 3.5 1.5 1.3 0 2.6-.5 3.5-1.5 2-2 2-5.1 0-7.1l-9.7-9.7 25.7-1c2.8-.1 4.9-2.4 4.8-5.2-.1-2.8-2.4-4.9-5.2-4.8l-34.9 1.4-41.4-41.4h60.6l22.3 24.1c1 1.1 2.3 1.6 3.7 1.6 1.2 0 2.4-.4 3.4-1.3 2-1.9 2.2-5 .3-7.1l-15.8-17.4z" fill="rgba(221, 221, 221, 1)" stroke="none"/>
</svg>
</g></svg></g></g>
<!-- /image 72939 -->

<!-- image 35165 -->
<g id="transformed-35165" data-image="35165" transform="translate(128.51963439512403, -7.82036560487599) rotate(3, 20.880365604875987, 20.88036560487599)"><g><svg version="1.1" width="41.760731209751974px" height="41.76073120975198px" viewBox="0 0 41.760731209751974 41.76073120975198"><g id="original-35165"><svg xmlns="http://www.w3.org/2000/svg" viewBox="0 0 400 400" xmlns:xlink="http://www.w3.org/1999/xlink" version="1.1" preserveAspectRatio="xMidYMid meet">
  <path d="M306.8 233.2c-.7-2.7-3.4-4.3-6.1-3.6L271 237l-12.8-7.7.5-23.4 13.8-.3c2.8-.1 4.9-2.4 4.9-5.1-.1-2.8-2.4-4.9-5.1-4.9l-13.4.3.5-22.8 9.6-5.1 29.5 9.7c.5.2 1 .2 1.6.2 2.1 0 4.1-1.3 4.8-3.4.9-2.6-.6-5.4-3.2-6.3l-20.5-6.7 20.7-11.1c2.4-1.3 3.3-4.3 2-6.8-1.3-2.4-4.3-3.3-6.8-2L277.5 152l6.5-19.4c.9-2.6-.5-5.5-3.2-6.3-2.6-.9-5.5.5-6.3 3.2l-9.8 29.4-9.8 5.2-18.9-11.5 8.2-13.5c1.4-2.4.7-5.4-1.7-6.9-2.4-1.4-5.4-.7-6.9 1.7l-8.2 13.5-20.9-12.6.3-14.3 22.4-22.4c2-2 2-5.1 0-7.1s-5.1-2-7.1 0l-15 15 .5-21.8c.1-2.8-2.1-5-4.9-5.1-2.7-.1-5 2.1-5.1 4.9l-.5 21.6-14.6-14.8c-1.9-2-5.1-2-7.1 0-2 1.9-2 5.1 0 7.1l21.4 21.7-.3 14.8-22.3 12.3-7.4-12.4c-1.4-2.4-4.5-3.2-6.8-1.8-2.4 1.4-3.2 4.5-1.8 6.8l7.2 12.2-19.4 10.7-12.8-7.6-7.7-29.9c-.7-2.7-3.4-4.3-6.1-3.6-2.7.7-4.3 3.4-3.6 6.1l5.2 20.1-19-11.4c-2.4-1.4-5.4-.6-6.9 1.7-1.4 2.4-.6 5.4 1.7 6.9l19.1 11.5-20.5 5.2c-2.7.7-4.3 3.4-3.6 6.1.6 2.3 2.6 3.8 4.8 3.8.4 0 .8 0 1.2-.2l30.2-7.6 13.5 8.1-.5 22.4-11.9.3c-2.8.1-4.9 2.4-4.9 5.1.1 2.7 2.3 4.9 5 4.9h.1l11.4-.3-.5 21.8-12.6 6.7-29.6-8.1c-2.7-.7-5.4.9-6.1 3.5-.7 2.7.9 5.4 3.5 6.1l19.7 5.3-20.7 11.1c-2.4 1.3-3.3 4.3-2 6.8.9 1.7 2.6 2.6 4.4 2.6.8 0 1.6-.2 2.4-.6l21.8-11.7-5.7 20.8c-.7 2.7.8 5.4 3.5 6.1.4.1.9.2 1.3.2 2.2 0 4.2-1.5 4.8-3.7l8.3-30 11.2-6 19.1 11.6-7.1 10.2c-1.6 2.3-1 5.4 1.3 7 .9.6 1.9.9 2.8.9 1.6 0 3.1-.7 4.1-2.1l7.4-10.7 21.7 13.1-.4 16.3-22.4 22.4c-2 2-2 5.1 0 7.1 1 1 2.3 1.5 3.5 1.5 1.3 0 2.6-.5 3.5-1.5l15-15-.4 18.6c-.1 2.8 2.1 5 4.9 5.1h.1c2.7 0 4.9-2.2 5-4.9l.5-18.3 14.6 14.8c1 1 2.3 1.5 3.6 1.5 1.3 0 2.5-.5 3.5-1.4 2-1.9 2-5.1 0-7.1l-21.4-21.6.4-17.3 19.6-10.8 5.4 9.4c.9 1.6 2.6 2.5 4.3 2.5.8 0 1.7-.2 2.5-.7 2.4-1.4 3.2-4.4 1.9-6.8l-5.3-9.3 20.8-11.4 12.4 7.4 7.8 30.4c.6 2.3 2.6 3.8 4.8 3.8.4 0 .8-.1 1.2-.2 2.7-.7 4.3-3.4 3.6-6.1l-5.3-20.6 16.8 10c.8.5 1.7.7 2.6.7 1.7 0 3.4-.9 4.3-2.4 1.4-2.4.6-5.4-1.7-6.9l-16.3-9.7 20-5.1c2.8-.5 4.4-3.2 3.7-5.9zm-58.5-9.7L209.2 200l40.1-21.5-1 45zm-21.8-64.8l18.2 11-39.4 21.1 1-44.4 20.2 12.3zM196.3 146l-1 45.7-39.4-23.5 40.4-22.2zm-44.8 31.2l37.4 22.4-38.3 20.5.9-42.9zm3 52.2l40.4-21.7-1 45.5-39.4-23.8zm49.4 23.9l1-44.2 38 22.8-39 21.4z" fill="rgba(221, 221, 221, 1)" stroke="none"/>
</svg>
</g></svg></g></g>
<!-- /image 35165 -->
</defs><rect x="0" y="0" width="250" height="250" fill="rgba(192, 0, 0, 1)"></rect><use xlink:href="#transformed-11264" transform="translate(-250, -250)"></use><use xlink:href="#transformed-11264" transform="translate(0, -250)"></use><use xlink:href="#transformed-11264" transform="translate(250, -250)"></use><use xlink:href="#transformed-11264" transform="translate(-250, 0)"></use><use xlink:href="#transformed-11264" transform="translate(0, 0)"></use><use xlink:href="#transformed-11264" transform="translate(250, 0)"></use><use xlink:href="#transformed-11264" transform="translate(-250, 250)"></use><use xlink:href="#transformed-11264" transform="translate(0, 250)"></use><use xlink:href="#transformed-11264" transform="translate(250, 250)"></use><use xlink:href="#transformed-26473" transform="translate(-250, -250)"></use><use xlink:href="#transformed-26473" transform="translate(0, -250)"></use><use xlink:href="#transformed-26473" transform="translate(250, -250)"></use><use xlink:href="#transformed-26473" transform="translate(-250, 0)"></use><use xlink:href="#transformed-26473" transform="translate(0, 0)"></use><use xlink:href="#transformed-26473" transform="translate(250, 0)"></use><use xlink:href="#transformed-26473" transform="translate(-250, 250)"></use><use xlink:href="#transformed-26473" transform="translate(0, 250)"></use><use xlink:href="#transformed-26473" transform="translate(250, 250)"></use><use xlink:href="#transformed-39697" transform="translate(-250, -250)"></use><use xlink:href="#transformed-39697" transform="translate(0, -250)"></use><use xlink:href="#transformed-39697" transform="translate(250, -250)"></use><use xlink:href="#transformed-39697" transform="translate(-250, 0)"></use><use xlink:href="#transformed-39697" transform="translate(0, 0)"></use><use xlink:href="#transformed-39697" transform="translate(250, 0)"></use><use xlink:href="#transformed-39697" transform="translate(-250, 250)"></use><use xlink:href="#transformed-39697" transform="translate(0, 250)"></use><use xlink:href="#transformed-39697" transform="translate(250, 250)"></use><use xlink:href="#transformed-75639" transform="translate(-250, -250)"></use><use xlink:href="#transformed-75639" transform="translate(0, -250)"></use><use xlink:href="#transformed-75639" transform="translate(250, -250)"></use><use xlink:href="#transformed-75639" transform="translate(-250, 0)"></use><use xlink:href="#transformed-75639" transform="translate(0, 0)"></use><use xlink:href="#transformed-75639" transform="translate(250, 0)"></use><use xlink:href="#transformed-75639" transform="translate(-250, 250)"></use><use xlink:href="#transformed-75639" transform="translate(0, 250)"></use><use xlink:href="#transformed-75639" transform="translate(250, 250)"></use><use xlink:href="#transformed-72939" transform="translate(-250, -250)"></use><use xlink:href="#transformed-72939" transform="translate(0, -250)"></use><use xlink:href="#transformed-72939" transform="translate(250, -250)"></use><use xlink:href="#transformed-72939" transform="translate(-250, 0)"></use><use xlink:href="#transformed-72939" transform="translate(0, 0)"></use><use xlink:href="#transformed-72939" transform="translate(250, 0)"></use><use xlink:href="#transformed-72939" transform="translate(-250, 250)"></use><use xlink:href="#transformed-72939" transform="translate(0, 250)"></use><use xlink:href="#transformed-72939" transform="translate(250, 250)"></use><use xlink:href="#transformed-35165" transform="translate(-250, -250)"></use><use xlink:href="#transformed-35165" transform="translate(0, -250)"></use><use xlink:href="#transformed-35165" transform="translate(250, -250)"></use><use xlink:href="#transformed-35165" transform="translate(-250, 0)"></use><use xlink:href="#transformed-35165" transform="translate(0, 0)"></use><use xlink:href="#transformed-35165" transform="translate(250, 0)"></use><use xlink:href="#transformed-35165" transform="translate(-250, 250)"></use><use xlink:href="#transformed-35165" transform="translate(0, 250)"></use><use xlink:href="#transformed-35165" transform="translate(250, 250)"></use></svg>